<?xml version="1.0" encoding="UTF-8" standalone="no"?>
<!-- Created with Inkscape (http://www.inkscape.org/) -->

<svg
   xmlns:dc="http://purl.org/dc/elements/1.1/"
   xmlns:cc="http://creativecommons.org/ns#"
   xmlns:rdf="http://www.w3.org/1999/02/22-rdf-syntax-ns#"
   xmlns:svg="http://www.w3.org/2000/svg"
   xmlns="http://www.w3.org/2000/svg"
   xmlns:xlink="http://www.w3.org/1999/xlink"
   xmlns:sodipodi="http://sodipodi.sourceforge.net/DTD/sodipodi-0.dtd"
   xmlns:inkscape="http://www.inkscape.org/namespaces/inkscape"
   id="svg3408"
   version="1.1"
   inkscape:version="0.91 r13725"
   width="307.20001"
   height="307.5"
   viewBox="0 0 307.20001 307.5"
   sodipodi:docname="LOGO.svg">
  <metadata
     id="metadata3414">
    <rdf:RDF>
      <cc:Work
         rdf:about="">
        <dc:format>image/svg+xml</dc:format>
        <dc:type
           rdf:resource="http://purl.org/dc/dcmitype/StillImage" />
        <dc:title></dc:title>
      </cc:Work>
    </rdf:RDF>
  </metadata>
  <defs
     id="defs3412">
    <linearGradient
       inkscape:collect="always"
       id="linearGradient3450">
      <stop
         style="stop-color:#75cbf6;stop-opacity:1;"
         offset="0"
         id="stop3452" />
      <stop
         style="stop-color:#0083be;stop-opacity:1"
         offset="1"
         id="stop3454" />
    </linearGradient>
    <linearGradient
       inkscape:collect="always"
       xlink:href="#linearGradient3450"
       id="linearGradient3456"
       x1="52.118645"
       y1="58.633476"
       x2="170.03708"
       y2="176.55191"
       gradientUnits="userSpaceOnUse" />
  </defs>
  <sodipodi:namedview
     pagecolor="#ffffff"
     bordercolor="#666666"
     borderopacity="0
"
     objecttolerance="10"
     gridtolerance="10"
     guidetolerance="10"
     inkscape:pageopacity="0"
     inkscape:pageshadow="2"
     inkscape:window-width="1855"
     inkscape:window-height="1056"
     id="namedview3410"
     showgrid="false"
     inkscape:zoom="1.0853801"
     inkscape:cx="327.65151"
     inkscape:cy="327.67528"
     inkscape:window-x="65"
     inkscape:window-y="24"
     inkscape:window-maximized="1"
     inkscape:current-layer="svg3408" />
  <g
     id="g3418">
    <path
       d="M 145.67793,294.27261 C 103.9782,291.88917 65.535059,271.58389 39.966439,238.43688 27.524123,222.30673 18.622522,202.98296 14.290939,182.7 11.226894,168.35238 10.550696,151.15392 12.474479,136.5 15.157665,116.06152 22.332442,96.323463 33.248479,79.35 55.266992,45.113187 91.013715,21.800025 131.4,15.337917 c 8.06345,-1.290212 13.27122,-1.673333 22.80001,-1.677334 11.46254,-0.0048 19.28661,0.728802 29.1,2.72853 33.87301,6.902491 63.69245,25.376458 84.75611,52.508752 20.66965,26.624772 31.02309,59.983035 28.94434,93.257255 -1.71427,27.44006 -11.28728,53.47745 -27.68322,75.29488 -8.78136,11.685 -20.66932,23.09563 -32.76723,31.45154 -26.62661,18.39073 -58.29702,27.23296 -90.87208,25.37107 z m 18.35098,-43.03845 c 17.16402,-2.06006 32.68999,-8.48603 45.9711,-19.02676 3.73872,-2.96729 10.45073,-9.63346 13.2982,-13.2074 9.20713,-11.55611 14.94962,-24.84739 17.19922,-39.80844 0.325,-2.16143 0.4932,-5.34081 0.50477,-9.54156 0.0158,-5.75417 -0.0535,-6.63393 -0.80007,-10.15421 C 237.53197,146.9058 231.3356,133.90998 219.43962,115.95 212.87986,106.0464 206.98658,97.988841 189.92773,75.6 168.19288,47.074164 159.04835,32.873862 154.67053,20.85 c -1.67142,-4.590613 -1.54144,-4.394841 -1.94361,-2.927362 -0.61134,2.230725 -2.94085,7.753943 -4.84843,11.495556 C 142.37651,40.209978 134.79714,51.270597 115.51258,76.65 102.04341,94.37607 100.07189,97.015905 94.831131,104.34221 74.94083,132.14781 66.074846,150.88188 65.201711,166.95 c -0.448893,8.26087 1.509021,20.03092 4.847682,29.14198 2.674545,7.29872 8.058373,16.73663 13.238947,23.20802 4.752006,5.93604 12.621693,13.06554 19.25687,17.44565 13.80779,9.11501 28.43317,13.88086 46.25479,15.07268 2.93289,0.19614 11.44946,-0.13055 15.22891,-0.58417 z"
       id="path3440"
       inkscape:connector-curvature="0"
       style="fill:#d0e9f4;fill-opacity:0" />
    <path
       style="fill:#92d3f2"
       d="M 145.2,293.96371 C 110.32508,291.81538 77.247318,276.99603 52.822109,252.57696 36.846778,236.60564 25.61232,218.50372 18.578057,197.4 11.205339,175.28087 9.7383414,150.43518 14.428435,127.12025 22.16618,88.655133 45.79009,55.29726 79.950003,34.601265 122.5684,8.7806439 176.8122,7.019007 221.03255,30.019428 c 13.42279,6.981627 24.87121,15.447771 35.51411,26.262807 11.25847,11.440563 18.8248,22.007187 25.86248,36.117765 6.39926,12.83054 10.27876,24.69843 12.62309,38.61566 6.29897,37.39403 -3.05059,75.75692 -25.86638,106.13434 -9.35414,12.45431 -21.64383,24.08776 -34.71584,32.86209 -7.14272,4.79442 -18.09054,10.5853 -26.03822,13.77299 -19.90736,7.98455 -41.74529,11.50098 -63.21179,10.17863 z m 17.55001,-42.29013 c 14.60012,-1.43765 29.19677,-6.66316 41.4,-14.82094 4.65711,-3.11325 7.79504,-5.69076 12.40784,-10.19185 15.31522,-14.94433 23.77686,-33.61589 24.81931,-54.76663 0.77372,-15.69825 -6.00848,-32.77882 -23.10724,-58.19416 -5.3832,-8.00151 -9.97841,-14.344548 -19.34957,-26.709327 C 178.62165,60.207531 173.98829,53.914578 168.49412,45.666225 162.15055,36.142692 156.97187,26.455127 154.66681,19.8 c -0.71436,-2.0625 -1.40075,-3.722729 -1.52531,-3.689397 -0.12456,0.03333 -0.72611,1.518332 -1.33678,3.3 -2.44714,7.13967 -6.20811,14.257254 -13.06754,24.730179 -5.47919,8.365584 -9.28833,13.546503 -32.30847,43.943622 C 78.055149,125.5505 66.795185,146.49697 65.050526,165.0586 c -0.811968,8.63863 1.094019,21.22369 4.697817,31.01931 1.449561,3.9401 5.022003,11.27843 7.215685,14.82209 8.991363,14.52459 23.796272,27.13555 39.735972,33.84749 14.65885,6.17259 30.10667,8.49599 46.05001,6.92609 z"
       id="path3438"
       inkscape:connector-curvature="0" />
    <ellipse
       style="fill:#ffffff;fill-opacity:1;stroke:#0083be;stroke-width:1.13835382;stroke-opacity:0"
       id="path4274"
       cx="153.42426"
       cy="143.65202"
       rx="106.4483"
       ry="129.25021" />
    <path
       style="fill:url(#linearGradient3456);fill-opacity:1"
       d="M 143.25,293.6747 C 108.42702,290.71515 77.003103,276.39411 53.118068,252.59824 35.032342,234.58003 22.831179,213.55591 16.383501,189.3 c -4.304968,-16.19512 -5.482529,-34.70409 -3.311478,-52.05 2.83924,-22.68449 11.456576,-44.38902 25.131961,-63.3 3.616446,-5.000997 9.090364,-11.442432 10.189369,-11.990346 0.354654,-0.176814 0.806901,-0.646572 1.004997,-1.04391 0.362442,-0.726987 1.576083,-1.566957 1.939509,-1.342347 0.272364,0.16833 1.762143,-1.836441 1.762143,-2.371284 0,-0.240855 0.2025,-0.515625 0.45,-0.610602 0.2475,-0.09497 0.45,-0.375951 0.45,-0.624393 0,-0.248439 0.405,-0.661143 0.9,-0.917118 0.495,-0.255975 0.9,-0.59694 0.9,-0.757704 0,-0.160764 0.328404,-0.292296 0.729783,-0.292296 0.45855,0 0.798375,-0.216108 0.914331,-0.581457 0.11031,-0.34755 0.51066,-0.619086 0.995217,-0.675 0.71295,-0.08227 0.804906,-0.215025 0.762867,-1.101345 -0.03335,-0.703104 0.04732,-0.912678 0.266826,-0.693174 0.389616,0.389616 2.617458,-1.364781 2.625567,-2.067606 C 62.100803,48.344085 63.655985,47.1 64.321484,47.1 c 0.245178,0 0.621894,-0.361182 0.837147,-0.802629 0.215256,-0.441447 0.861531,-1.063749 1.436169,-1.382898 0.574638,-0.319149 1.213368,-0.820938 1.419399,-1.115091 0.33117,-0.472806 2.762439,-2.279592 7.799268,-5.795982 3.034432,-2.118441 10.113325,-6.230463 14.747002,-8.566304 C 124.4049,12.376079 163.9033,9.5056965 200.24925,21.465916 c 32.08462,10.557959 59.37777,32.42816 76.96885,61.675715 10.06903,16.741122 16.21466,34.976859 18.7406,55.608369 0.66438,5.42663 0.91718,19.01314 0.46422,24.94973 -1.86324,24.42006 -9.52553,46.82803 -22.90406,66.98173 -17.08638,25.73929 -43.22359,45.76794 -72.6362,55.66032 -10.50526,3.53324 -19.758,5.57752 -31.38265,6.93359 -4.84193,0.56483 -21.34812,0.81593 -26.25001,0.39933 z m 23.40001,-42.2658 c 13.61555,-2.07866 26.29779,-6.91228 37.25325,-14.19844 12.08537,-8.03762 22.0242,-18.9743 28.57181,-31.44037 6.52916,-12.43097 9.79097,-27.07057 8.97344,-40.27444 C 240.65003,152.59943 233.48539,136.17884 219.50349,115.2 212.77866,105.10987 208.36712,99.076989 191.09443,76.35 167.30916,45.053907 159.02926,31.998513 154.70647,18.975 154.03558,16.95375 153.33372,15.3 153.14681,15.3 c -0.18692,0 -0.70972,1.23561 -1.16179,2.7458 -2.53013,8.452215 -9.09755,20.143237 -19.77593,35.2042 -3.35757,4.735572 -6.55287,9.009918 -26.35121,35.25 -17.135472,22.71081 -25.434468,35.34749 -32.213014,49.05 -4.374615,8.84308 -6.444801,14.42632 -7.956414,21.45824 -0.93168,4.33411 -1.147161,12.86735 -0.472146,18.69756 2.916747,25.19251 17.812762,47.90876 40.345794,61.52687 10.27068,6.20721 22.27399,10.46644 34.2379,12.14891 6.11064,0.85933 6.17599,0.86268 14.85001,0.76045 6.09616,-0.0718 8.71745,-0.23199 12,-0.73313 z"
       id="path3436"
       inkscape:connector-curvature="0" />
  </g>
</svg>
